<svg xmlns="http://www.w3.org/2000/svg" width="910.8" height="72"><path fill="#687790" d="M243.7 65.3c.3.2.6.5.9.7-5.7 3.8-12.6 6-19.9 6-19.9 0-36-16.1-36-36s16.1-36 36-36c7.4 0 14.2 2.2 19.9 6-.3.2-.6.5-.9.7-8.5 7.4-13.3 18-13.3 29.3-.1 11.2 4.8 21.9 13.3 29.3zM269.1 0c-7.4 0-14.2 2.2-19.9 6 .3.2.6.5.9.7 8.5 7.4 13.3 18 13.3 29.3s-4.9 21.9-13.3 29.3c-.3.2-.6.5-.9.7 5.7 3.8 12.6 6 19.9 6 19.9 0 36-16.1 36-36S289 0 269.1 0zm-22.2 7.7c-.5.4-.9.7-1.4 1.1-7.6 6.6-12.4 16.3-12.4 27.2 0 10.9 4.8 20.6 12.4 27.2.4.4.9.8 1.4 1.1.5-.4.9-.7 1.4-1.1 7.6-6.6 12.4-16.3 12.4-27.2 0-10.9-4.8-20.6-12.4-27.2-.5-.3-1-.7-1.4-1.1M39.2 49.5l7.6-25h6.7l-7.5 25zm-3-25l-6.1 10.6c-1.5 2.8-2.4 4.2-2.9 5.9h-.1c.1-2.2-.2-4.9-.2-6.5l-.7-10H14.9l-.1.7c2.9 0 4.6 1.5 5.1 4.5l2.2 19.8h7l14.1-24.9h-7v-.1zm52.5 25l-.2-3.7h-8.4l-1.7 3.7H71l13.3-24.9h9l2.2 24.9h-6.8zm-.8-14.7c-.1-1.8-.1-4.3 0-5.9h-.1c-.4 1.2-2.2 5-3 6.8l-2.5 5.5h5.9l-.3-6.4zM60.6 50.2c-4.8 0-7.9-1.5-10.2-2.9l3.2-4.9c2 1.1 3.6 2.4 7.3 2.4 1.2 0 2.3-.3 3-1.4.9-1.6-.2-2.5-2.9-4l-1.3-.8c-3.9-2.7-5.6-5.2-3.8-9.6 1.2-2.8 4.3-5 9.4-5 3.5 0 6.8 1.5 8.8 3l-3.7 4.3C68.6 29.8 67 29 65.2 29c-1.4 0-2.5.5-2.9 1.3-.7 1.4.2 2.3 2.3 3.6l1.5 1c4.7 3 5.9 6.1 4.7 9.1-2 5.1-6 6.2-10.2 6.2zm50.1 7H.2V72h110.5zm-.2-55.1H0v14.8h110.5z"/><g fill="#687790"><path d="M486.6 39.7S455 62 397 72h89.6V39.7zm-54.8-22.5c-4.8 0-8.6 3.7-8.6 8.3 0 4.9 3.7 8.5 8.6 8.5 4.8 0 8.6-3.7 8.6-8.4 0-4.8-3.7-8.4-8.6-8.4zm-48.9.3h-4.6v16.1h4.6c2.4 0 4.2-.6 5.8-1.9 1.8-1.5 2.9-3.8 2.9-6.2 0-4.7-3.6-8-8.7-8zm3.7 12.1c-1 .9-2.3 1.3-4.3 1.3h-.8V20.2h.8c2 0 3.3.4 4.3 1.3 1.1 1 1.7 2.5 1.7 4 .1 1.6-.6 3.1-1.7 4.1zm6.5-12.1h3.1v16.1h-3.1zm10.8 6.2c-1.9-.7-2.4-1.2-2.4-2 0-1 1-1.8 2.3-1.8.9 0 1.7.4 2.5 1.3L408 19c-1.4-1.2-3-1.8-4.7-1.8-2.9 0-5 2-5 4.6 0 2.2 1 3.4 4 4.4 1.2.4 1.9.7 2.2.9.6.4.9 1 .9 1.7 0 1.3-1 2.3-2.4 2.3-1.5 0-2.7-.8-3.4-2.2l-2 2c1.4 2.1 3.2 3.1 5.6 3.1 3.3 0 5.6-2.2 5.6-5.3-.2-2.6-1.3-3.7-4.9-5zm5.7 1.8c0 4.8 3.7 8.4 8.5 8.4 1.4 0 2.5-.3 3.9-.9v-3.7c-1.3 1.3-2.4 1.8-3.8 1.8-3.2 0-5.4-2.3-5.4-5.6 0-3.1 2.3-5.5 5.3-5.5 1.5 0 2.6.5 3.9 1.8v-3.7c-1.4-.7-2.5-1-3.9-1-4.7 0-8.5 3.7-8.5 8.4zm38 2.8l-4.4-10.8h-3.4l6.9 16.5h1.7l6.9-16.5h-3.4zm9.2 5.3h8.9v-2.7h-5.8v-4.4h5.6v-2.7h-5.6v-3.6h5.8v-2.7h-8.9zm21.4-11.4c0-3-2.1-4.8-5.7-4.8h-4.7v16.1h3.2V27h.4l4.4 6.5h3.9l-5.1-6.8c2.3-.4 3.6-2 3.6-4.5zm-6.4 2.7h-.9V20h1c2 0 3 .8 3 2.4s-1 2.5-3.1 2.5zm8.6-6.2c0-.3-.2-.4-.5-.4h-.5v1.4h.3v-.6l.4.6h.4l-.5-.6c.3-.1.4-.2.4-.4zm-.6.2l-.1-.4h.1c.2 0 .3.1.3.2-.1.1-.1.2-.3.2z"/><path d="M479.9 17.7c-.7 0-1.2.6-1.2 1.2s.6 1.2 1.2 1.2c.7 0 1.2-.6 1.2-1.2s-.5-1.2-1.2-1.2zm0 2.3c-.6 0-1-.5-1-1 0-.6.4-1 1-1 .5 0 1 .5 1 1s-.4 1-1 1zm-73.4 17.9l4.2 4.4v-4.2h.6v5.6l-4.2-4.4v4.2h-.6v-5.6z"/><path d="M406.5 37.9v5.7h.7v-4.1c.2.2 4.2 4.4 4.2 4.4V38h-.7v4.1c-.2-.2-4.2-4.4-4.2-4.4v.2zm.1.1c.2.2 4.2 4.4 4.2 4.4v-4.3h.5v5.5c-.2-.2-4.2-4.4-4.2-4.4v4.2h-.5V38zm7.7.1h2.8v.6h-2.2v1.6h2.1v.6h-2.1V43h2.2v.6h-2.8v-5.5z"/><path d="M417.1 38h-2.9v5.5h2.9v-.7h-2.2v-2h2.1v-.7h-2.1v-1.5h2.2V38zm-.1.1v.4h-2.2v1.7h2.1v.4h-2.1V43h2.2v.4h-2.7v-5.3h2.7zm4.3 5.4h-.6v-4.8h-1.3v-.6h3.2v.6h-1.3v4.8z"/><path d="M422.7 38h-3.3v.7h1.3v4.8h.7v-4.8h1.3V38zm-.1.1v.4h-1.3v4.8h-.5v-4.8h-1.3v-.4h3.1zm4.1 4l1.8-4.3 1.7 4.3 1.4-4h.7l-2.1 5.7-1.7-4.4-1.8 4.4-2.1-5.7h.7l1.4 4z"/><path d="M428.4 37.8s-1.6 3.9-1.7 4.2c-.1-.3-1.4-3.9-1.4-3.9h-.8l2.2 5.9s1.7-4.1 1.8-4.4c.1.2 1.8 4.4 1.8 4.4l2.1-5.9h-.8s-1.3 3.7-1.4 3.9c-.1-.3-1.7-4.3-1.7-4.3l-.1.1zm-1.7 4.4s1.6-4 1.7-4.2c.1.2 1.8 4.3 1.8 4.3s1.4-4.1 1.5-4.2h.5c0 .1-1.9 5.2-2 5.5-.1-.3-1.7-4.3-1.7-4.3s-1.6 4.1-1.7 4.3c-.1-.3-1.9-5.3-2-5.5h.5c0 .1 1.5 4.2 1.5 4.2l-.1-.1zm13.3-1.4c0 1.6-1.3 2.8-2.8 2.8s-2.8-1.2-2.8-2.8c0-1.5 1.3-2.8 2.8-2.8 1.6 0 2.8 1.2 2.8 2.8zm-5 0c0 1.2 1 2.2 2.2 2.2 1.2 0 2.2-1 2.2-2.2s-1-2.2-2.2-2.2c-1.2-.1-2.2 1-2.2 2.2z"/><path d="M434.3 40.8c0 1.6 1.3 2.8 2.9 2.8 1.6 0 2.9-1.3 2.9-2.8 0-1.6-1.3-2.9-2.9-2.9-1.6 0-2.9 1.3-2.9 2.9zm.2 0c0-1.5 1.2-2.7 2.8-2.7 1.5 0 2.8 1.2 2.8 2.7s-1.2 2.7-2.8 2.7c-1.6 0-2.8-1.2-2.8-2.7z"/><path d="M434.9 40.8c0 1.3 1 2.3 2.3 2.3s2.3-1 2.3-2.3-1-2.3-2.3-2.3-2.3 1-2.3 2.3zm.2 0c0-1.2 1-2.2 2.2-2.2s2.2 1 2.2 2.2-1 2.2-2.2 2.2c-1.3 0-2.2-1-2.2-2.2zm8.1 2.7h-.6v-5.4h.8c1 0 2 .3 2 1.5 0 .8-.5 1.4-1.4 1.5l1.7 2.4h-.7l-1.6-2.4h-.2v2.4zm0-2.9h.2c.7 0 1.4-.1 1.4-1s-.7-1-1.4-1h-.2v2z"/><path d="M442.6 38l-.1 5.5h.7v-2.4h.1l1.6 2.3h.9s-1.6-2.3-1.7-2.4c.8-.1 1.3-.7 1.3-1.5 0-1-.7-1.5-2-1.5h-.8zm.8.1c1.3 0 1.9.5 1.9 1.4 0 .8-.5 1.4-1.3 1.4h-.1s1.6 2.2 1.7 2.4h-.6l-1.6-2.3h-.3v2.4h-.5v-5.3h.8z"/><path d="M443.2 38.6l-.1 2.1h.2c.7 0 1.4-.1 1.4-1 0-1-.7-1-1.4-1h-.1v-.1zm.2.1c.7 0 1.3.1 1.3.9s-.7.9-1.3.9h-.1c0-.1 0-1.7.1-1.8zm7.8-.6h.8l-2.5 2.5 2.6 2.9h-.8l-2.2-2.5-.2.1v2.3h-.6V38h.6v2.3l2.3-2.2z"/><path d="M452 38h-.8s-2 2.1-2.2 2.2V38h-.7v5.5h.7v-2.4s.1 0 .1-.1c.1.1 2.2 2.4 2.2 2.4h1s-2.6-2.9-2.7-2.9l2.6-2.6-.2.1zm-.1.1l-2.5 2.5s2.4 2.7 2.6 2.8h-.7l-2.2-2.5-.2.2v2.3h-.5v-5.3h.5v2.4s2.3-2.4 2.4-2.4h.6z"/></g><g fill="#687790"><path d="M616.2 30.9l2.2 2.8h11.9v-1.4c.3.2.6.4 1 .5.3.2.7.3 1 .4.4.1.8.2 1.3.3.7.1 1.4.2 2 .2h7.1l1-2.8h2l1.1 2.8h11.9v-2.9l1.7 3h8.3V14.4h-8.9v3.1l-2-3.1h-7.7v3.9l-1.7-3.9h-12.8c-.6 0-1.2 0-1.8.1-.5.1-1 .2-1.4.3s-.7.2-1.1.4c-.4.2-.8.4-1.1.6v-1.5h-41.7l-1.1 3.4-1.2-3.4h-9.7v3.9l-1.8-3.9h-7.9l-3.4 8.4v7.9l5.6-13h4.1l5.6 13h-3.5l-1.2-2.8h-6.2l-1.1 2.8h-3.3v3.1h5.6l1-2.8h2l1.1 2.8h43.1v-2.8zM653 17.6h3.9l4.9 7.5.6 1v-8.5h3.1v13h-3.7l-5-7.8-.7-1.1v8.9H653v-13zm-6.3 0l5.6 13h-3.5l-1.2-2.8h-6.2l-1.1 2.8H637l5.6-13h4.1zm-17.4 6.6V24c0-3.7 2.2-6.4 6.2-6.4h3.6v2.8h-3.4c-2.3 0-3.4 1.5-3.4 3.6v.2c0 2.3 1.3 3.6 3.4 3.6h.9l-1.3 2.8h-.2c-3.7 0-6-2.5-5.8-6.4zm-5.3.6v-7.2h3.1v13H624v-5.8zm-28.7 5.8h-3V18.3l-3.6 12.3h-2.8l-3.6-12.4.1 3.5h-.1v8.9h-3v-13h5.5l2.5 9.2 2.5-9.2h5.5v13zm13.1-10.4h-7.3v2.6h7.1v2.6h-7.1v2.5h7.3v2.7H598v-13h10.4v2.6zm5.4 5.7v4.7h-3.1v-13h7.1c2.8 0 4.5 1.7 4.5 4.1 0 2.1-1.3 3.7-3.5 4.1l4.3 4.8h-3.9l-3.9-4.7h-1.5zm4.1 20.4h-3.7v3.2h3.7c1.1 0 1.7-.7 1.7-1.6 0-.9-.6-1.6-1.7-1.6z"/><path d="M571.9 22.4L571 20l-1 2.4-1.1 2.9h4.2zm101.1 18h-67.6l-1.7 2.5-1.7-2.5h-19.7v19.3H602l1.7-2.5 1.8 2.5h12.3v-4.2h-.1c1.5 0 2.9-.3 4.2-.7v4.9h8.6v-2.8l2.2 2.8h37.2c1.1 0 2.1-.2 3-.5.1-.2.6-.4 1.1-.7V40.4h-1zm-77.4 5.8h-7.3v2.5h7.1v2.6h-7.1v2.6h7.3v2.7h-10.4v-13h10.4v2.6zm14.7 10.4h-3.9l-3.2-4.3-3.2 4.2h-3.8l5.2-6.5-5.2-6.5h3.9l3.2 4.1 3.2-4.1h3.8l-5.2 6.5 5.2 6.6zm7.7-4.4h-3.9v4.3H611V43.4h7.1c2.8 0 4.5 1.8 4.5 4.4 0 2.5-1.8 4.4-4.6 4.4zm14.9 4.4l-3.9-4.7h-1.5v4.7h-3.1v-13h7.1c2.8 0 4.5 1.7 4.5 4.1 0 2.1-1.3 3.7-3.5 4.1l4.3 4.8h-3.9zm15.8-10.4h-7.3v2.5h7.1v2.6h-7.1v2.6h7.3v2.7h-10.4v-13h10.4v2.6zm8.4 10.4h-6.6V54h6.7c.8 0 1.3-.6 1.5-1.3 0-.8-.6-1.3-1.3-1.3h-3c-2.5 0-4.1-1.4-4.1-3.8s1.7-4.1 4.5-4.1h6.7l-1.2 2.6h-5.7c-.8 0-1.3.5-1.3 1.3s.6 1.3 1.3 1.3h3c2.5 0 4 1.4 4 3.7 0 2.5-1.7 4.2-4.5 4.2zm12.4 0h-6.6V54h6.7c.8 0 1.3-.6 1.5-1.3 0-.8-.6-1.3-1.3-1.3h-3c-2.5 0-4.1-1.4-4.1-3.8s1.7-4.1 4.5-4.1h6.7l-1.2 2.6H667c-.8 0-1.3.5-1.3 1.3s.6 1.3 1.3 1.3h3c2.5 0 4 1.4 4 3.7 0 2.5-1.7 4.2-4.5 4.2z"/><path d="M631.2 46.2h-3.7v3.2h3.7c1.1 0 1.7-.7 1.7-1.6 0-.9-.6-1.6-1.7-1.6zm-13.8-26h-3.7v3.2h3.7c1.1 0 1.7-.7 1.7-1.6s-.6-1.6-1.7-1.6zm28 2.2l-.9-2.4-.9 2.4-1.2 2.9h4.2z"/></g><path fill="#687790" d="M815.6 34.7c-.5 3.1-2.8 3.1-5.1 3.1h-1.3l.9-5.7c.1-.3.4-.6.7-.6h.6c1.5 0 3 0 3.7.9.5.4.6 1.2.5 2.3m-1-8h-8.5c-.6 0-1.1.4-1.2 1l-3.4 21.8c-.1.4.3.8.7.8h4.1c.6 0 1.1-.4 1.2-1l.9-5.9c.1-.6.6-1 1.2-1h2.7c5.6 0 8.8-2.7 9.7-8.1.4-2.4 0-4.2-1.1-5.5-1.3-1.4-3.5-2.1-6.3-2.1m19.7 15.8c-.4 2.3-2.2 3.9-4.6 3.9-1.2 0-2.1-.4-2.7-1.1-.6-.7-.8-1.7-.6-2.9.4-2.3 2.2-3.9 4.6-3.9 1.2 0 2.1.4 2.7 1.1.5.7.8 1.8.6 2.9m5.7-7.9h-4.1c-.3 0-.6.3-.7.6l-.2 1.1-.3-.4c-.9-1.3-2.8-1.7-4.8-1.7-4.5 0-8.3 3.4-9.1 8.2-.4 2.4.2 4.7 1.5 6.3 1.2 1.5 3 2.1 5.1 2.1 3.6 0 5.6-2.3 5.6-2.3l-.2 1.1c-.1.4.3.8.7.8h3.7c.6 0 1.1-.4 1.2-1l2.2-13.9c.2-.6-.2-.9-.6-.9m21.7 0h-4.1c-.4 0-.8.2-1 .5l-5.6 8.3-2.4-8c-.2-.5-.6-.8-1.1-.8h-4c-.5 0-.8.5-.7.9l4.5 13.2-4.2 6c-.3.5 0 1.1.6 1.1h4.1c.4 0 .8-.2 1-.5l13.6-19.6c.2-.5-.1-1.1-.7-1.1m14.5.1c-.5 3.1-2.8 3.1-5.1 3.1h-1.3l.9-5.7c.1-.3.4-.6.7-.6h.6c1.5 0 3 0 3.7.9.5.4.7 1.2.5 2.3m-1-8h-8.5c-.6 0-1.1.4-1.2 1l-3.4 21.8c-.1.4.3.8.7.8h4.4c.4 0 .8-.3.8-.7l1-6.2c.1-.6.6-1 1.2-1h2.7c5.6 0 8.8-2.7 9.7-8.1.4-2.4 0-4.2-1.1-5.5-1.3-1.4-3.4-2.1-6.3-2.1M895 42.5c-.4 2.3-2.2 3.9-4.6 3.9-1.2 0-2.1-.4-2.7-1.1-.6-.7-.8-1.7-.6-2.9.4-2.3 2.2-3.9 4.6-3.9 1.2 0 2.1.4 2.7 1.1.5.7.8 1.8.6 2.9m5.6-7.9h-4.1c-.3 0-.6.3-.7.6l-.2 1.1-.3-.4c-.9-1.3-2.8-1.7-4.8-1.7-4.5 0-8.3 3.4-9.1 8.2-.4 2.4.2 4.7 1.5 6.3 1.2 1.5 3 2.1 5.1 2.1 3.6 0 5.6-2.3 5.6-2.3l-.2 1.1c-.1.4.3.8.7.8h3.7c.6 0 1.1-.4 1.2-1l2.2-13.9c.2-.6-.1-.9-.6-.9m4.8-7.3L902 49.5c-.1.4.3.8.7.8h3.5c.6 0 1.1-.4 1.2-1l3.4-21.8c.1-.4-.3-.8-.7-.8h-3.9c-.4 0-.7.2-.8.6m-117.9 5.1c-.2-1-.5-1.8-1.1-2.4-.3-.3-.6-.6-1-.8 0-.2.1-.4.1-.6 0-.2.1-.5.1-.7-.2-.1-.3-.2-.5-.2.2.1.3.1.5.2.5-2.9 0-4.9-1.6-6.7-1.7-2-4.9-2.8-8.9-2.8h-11.7c-.8 0-1.5.6-1.6 1.4l-4.9 30.8c-.1.6.4 1.2 1 1.2h7.2l.2-1.3h1.3l-.7 4.1h5.7s.1-.1.1-.2l.1-.3 1.1-7.3.1-.4c.1-.6.4-1.2.9-1.7.5-.4 1.1-.7 1.8-.7h.9c1.4 0 2.7-.1 3.8-.4 1.2-.3 2.2-.8 3.1-1.4.9-.6 1.7-1.5 2.3-2.5.7-1.1 1.1-2.4 1.4-4 .5-1.2.5-2.3.3-3.3zm-2.9-5.1c.2.1.3.1.5.2-.2-.1-.4-.1-.5-.2z"/><path fill="#7B8EA8" d="M785.8 27.8c0 .2-.1.5-.1.7-1.5 7.9-6.8 10.6-13.5 10.6h-3.4c-.8 0-1.5.6-1.6 1.4l-1.8 11.1-.5 3.1c-.1.5.3 1 .9 1h6.1c.7 0 1.3-.5 1.4-1.2l.1-.3 1.1-7.3.1-.4c.1-.7.7-1.2 1.4-1.2h.9c5.9 0 10.5-2.4 11.8-9.3.6-2.9.3-5.3-1.2-7-.5-.4-1.1-.8-1.7-1.2"/></svg>