<svg xmlns="http://www.w3.org/2000/svg" width="412" height="397.4" viewBox="-82.7 -65.6 412 397.4"><ellipse opacity=".1" fill="#010101" cx="30.5" cy="267.6" rx="102.8" ry="7.3"/><ellipse opacity=".1" fill="#010101" cx="217.1" cy="263.4" rx="102.8" ry="12.3"/><path fill="#939FB2" d="M-50.3 28.5h98.2v238.2h-98.2z"/><circle fill="#939FB2" cx="-1.2" cy="27.1" r="27"/><path fill="#939FB2" d="M-2.8-16.5H.5v37.8h-3.3z"/><path d="M-42.6 37.9h10.5v12.4h-10.5zm14.7 0h10.5v12.4h-10.5zm14.7 0h10.5v12.4h-10.5zm14.6 0h10.5v12.4H1.4zm14.7 0h10.5v12.4H16.1zm14.7 0h10.5v12.4H30.8zm-73.4 18.6h10.5v12.4h-10.5zm14.7 0h10.5v12.4h-10.5zm14.7 0h10.5v12.4h-10.5zm14.6 0h10.5v12.4H1.4zm14.7 0h10.5v12.4H16.1zm14.7 0h10.5v12.4H30.8zM-42.6 74h10.5v12.4h-10.5zm14.7 0h10.5v12.4h-10.5zm14.7 0h10.5v12.4h-10.5zm14.6 0h10.5v12.4H1.4zm14.7 0h10.5v12.4H16.1zm14.7 0h10.5v12.4H30.8zm-73.4 18.6h10.5V105h-10.5zm14.7 0h10.5V105h-10.5zm14.7 0h10.5V105h-10.5zm14.6 0h10.5V105H1.4zm14.7 0h10.5V105H16.1zm14.7 0h10.5V105H30.8zm-73.4 17.2h10.5v12.4h-10.5zm14.7 0h10.5v12.4h-10.5zm14.7 0h10.5v12.4h-10.5zm14.6 0h10.5v12.4H1.4zm14.7 0h10.5v12.4H16.1zm14.7 0h10.5v12.4H30.8zm-73.4 18.6h10.5v12.4h-10.5zm14.7 0h10.5v12.4h-10.5zm14.7 0h10.5v12.4h-10.5zm14.6 0h10.5v12.4H1.4zm14.7 0h10.5v12.4H16.1zm14.7 0h10.5v12.4H30.8zM-42.6 146h10.5v12.4h-10.5zm14.7 0h10.5v12.4h-10.5zm14.7 0h10.5v12.4h-10.5zm14.6 0h10.5v12.4H1.4zm14.7 0h10.5v12.4H16.1zm14.7 0h10.5v12.4H30.8zm-73.4 18.6h10.5V177h-10.5zm14.7 0h10.5V177h-10.5zm14.7 0h10.5V177h-10.5zm14.6 0h10.5V177H1.4zm14.7 0h10.5V177H16.1zm14.7 0h10.5V177H30.8zm-73.4 18.9h10.5v12.4h-10.5zm14.7 0h10.5v12.4h-10.5zm14.7 0h10.5v12.4h-10.5zm14.6 0h10.5v12.4H1.4zm14.7 0h10.5v12.4H16.1zm14.7 0h10.5v12.4H30.8zm-73.4 18.6h10.5v12.4h-10.5zm14.7 0h10.5v12.4h-10.5zm14.7 0h10.5v12.4h-10.5zm14.6 0h10.5v12.4H1.4zm14.7 0h10.5v12.4H16.1zm14.7 0h10.5v12.4H30.8zm-73.4 17.5h10.5V232h-10.5zm14.7 0h10.5V232h-10.5zm14.7 0h10.5V232h-10.5zm14.6 0h10.5V232H1.4zm14.7 0h10.5V232H16.1zm14.7 0h10.5V232H30.8zm-73.4 18.6h10.5v12.4h-10.5zm14.7 0h10.5v12.4h-10.5zm14.7 0h10.5v12.4h-10.5zm14.6 0h10.5v12.4H1.4zm14.7 0h10.5v12.4H16.1zm14.7 0h10.5v12.4H30.8z" fill="#687790"/><path fill="#939FB2" d="M229.1 63.7h71.6v198.8h-71.6z"/><path fill="#687790" d="M238.2 69.1h52.1v11.3h-52.1zm0 19.2h52.1v11.3h-52.1zm0 19.2h52.1v11.3h-52.1zm0 19.2h52.1V138h-52.1zm0 19.2h52.1v11.3h-52.1zm0 19.1h52.1v11.3h-52.1zm0 19.2h52.1v11.3h-52.1zm0 19.2h52.1v11.3h-52.1zm0 19.2h52.1v11.3h-52.1zm0 19.2h52.1v11.3h-52.1z"/><path fill="#939FB2" d="M170.2-42.1h55.1v313.3h-55.1z"/><path fill="#687790" d="M177.7-33.6h40.1v17.8h-40.1zm0 30.2h40.1v17.8h-40.1zm0 30.3h40.1v17.8h-40.1zm0 30.2h40.1v17.8h-40.1zm0 30.2h40.1v17.8h-40.1zm0 30.3h40.1v17.8h-40.1zm0 30.2h40.1v17.8h-40.1zm0 30.2h40.1v17.8h-40.1zm0 30.3h40.1v17.8h-40.1zm0 30.2h40.1v17.8h-40.1z"/><ellipse opacity=".1" fill="#010101" cx="102.8" cy="324.6" rx="102.8" ry="7.3"/><path fill="#3BD771" d="M172.7 168.5H32L22 61.9h160.7z"/><path fill="#3BD771" d="M180.3 299.6H24.4l-11-138.1h178z"/><path fill="#35BC5E" d="M140.9 133.5c0 1.2-1.8 2.1-4 2.1 0 0-25.9 1.8-34.5 1.8-8.6 0-34.4-1.8-34.4-1.8-2.2 0-4-.9-4-2.1v-4.9h77v4.9h-.1z"/><path fill="#9B9A9A" d="M67.9 58.2s-1.3-32-13.3-41.7-3-.6-2.7 0c8 12.4 9.7 41.7 9.7 41.7h6.3z"/><circle fill="#3BD771" cx="64.2" cy="62.5" r="11.4"/><circle fill="#121E35" cx="50.7" cy="9.7" r="9.7"/><path fill="#9B9A9A" d="M136.8 58.2s1.3-32 13.3-41.7 3-.6 2.7 0c-8 12.4-9.7 41.7-9.7 41.7h-6.3z"/><circle fill="#3BD771" cx="140.5" cy="62.5" r="11.4"/><circle fill="#121E35" cx="154" cy="9.7" r="9.7"/><path fill="#121E35" d="M118.76 181.764l-16.404 16.405-16.405-16.405 16.405-16.404z"/><path fill="#3BD771" d="M84.4 325H43.8l-2.9-36h46.4zm81.8 0h-40.6l-2.9-36H169z"/><path fill="#35BC5E" d="M46.23 281.11l-7.673.64-8.27-99.361 7.674-.64zm118.526-99.453l7.673.638-8.269 99.361-7.674-.638z"/><path fill="#121E35" d="M82.1 251l20.3-83.9 20.3 83.9-20.3 20.3zm108.2-149.7c0 3.9-3.2 7.1-7.1 7.1H24.4c-3.9 0-7.1-3.2-7.1-7.1v-1.2c0-3.9 3.2-7.1 7.1-7.1h158.9c3.9 0 7.1 3.2 7.1 7.1v1.2z"/><path opacity=".2" fill="#FFF" d="M105.8 93.7c-1.7 2-3.2 3.9-3.1 4.2.2.7 4.4 2 4.5 2.4.1.4-3.8 8.7-3.6 8.8.2.1 8.7-9.4 8.5-10.1s-4.4-2.1-4.5-2.4c0-.1.5-1.4 1.2-2.9h-3z"/><path fill="#121E35" d="M13.189 159.767l33.622-2.302.5 7.283-33.623 2.303zm177.981 7.101l-33.622-2.301.492-7.184 33.623 2.302z"/></svg>