<svg xmlns="http://www.w3.org/2000/svg" width="64" height="64"><path fill="#4AB367" d="M63.4 31.4C63.4 14.1 49.4 0 32 0S.6 14.1.6 31.4C.6 48.8 14.7 62.8 32 62.8c17.4.1 31.4-14 31.4-31.4z"/><path opacity=".2" d="M23 22.7v22c0 .8-.7 1.4-1.5 1.4h-6c-.8 0-1.5-.6-1.5-1.4v-22c0-.8.7-1.4 1.5-1.4h6c.8 0 1.5.6 1.5 1.4zm16.4-1.4H26.7c-.8 0-1.4.6-1.4 1.4v22c0 .8.6 1.4 1.4 1.4h12.8c7.1 0 12.8-5.5 12.8-12.4s-5.8-12.4-12.9-12.4z"/><path fill="#F9F9F9" d="M15.5 20.2h6c.8 0 1.5.6 1.5 1.4v22c0 .8-.7 1.4-1.5 1.4h-6c-.8 0-1.5-.6-1.5-1.4v-22c0-.8.7-1.4 1.5-1.4m11.2 0c-.8 0-1.4.6-1.4 1.4v22c0 .8.6 1.4 1.4 1.4h12.8c7.1 0 12.8-5.5 12.8-12.4s-5.7-12.3-12.8-12.3l-12.8-.1z"/><path opacity=".2" fill="#FFF" d="M32 0C14.6 0 .6 14 .6 31.4v.4C1 14.7 14.8 1.1 32 1.1s31 13.6 31.4 30.7v-.4C63.4 14 49.4 0 32 0z"/><path opacity=".2" d="M.6 32.2v.4C.6 50 14.6 64 32 64s31.4-14 31.4-31.4v-.4C63 49.3 49.2 62.9 32 62.9S1 49.3.6 32.2z"/></svg>