<svg xmlns="http://www.w3.org/2000/svg" width="237.2" height="330.6"><ellipse opacity=".1" fill="#010101" cx="119.1" cy="323.3" rx="102.8" ry="7.3"/><path fill="#3BD771" d="M100.7 323.8H60.1l-2.9-36h46.4z"/><path fill="#121E35" d="M67.2 278.3l-44.4 6.3L0 147.8l50.7-7.3z"/><path fill="#3BD771" d="M182.5 323.8h-40.6l-2.9-36h46.4z"/><path fill="#121E35" d="M170 278.3l44.4 6.3 22.8-136.8-50.7-7.3z"/><path fill="#3BD771" d="M196.6 298.4H40.8L29.7 160.2h178z"/><path fill="#121E35" d="M134.9 180.7L118.7 197l-16.3-16.3h-45l7.6 97.2h107.4l7.6-97.2z"/><path fill="#3BD771" d="M189 167.3H48.3l-10-106.7H199z"/><path fill="#9B9A9A" d="M213.4 100.5c0 15.3-10.9 27.7-24.3 27.7H50.5c-13.4 0-24.3-12.4-24.3-27.7 0-15.3 10.9-27.7 24.3-27.7H189c13.5.1 24.4 12.5 24.4 27.7z"/><path fill="#121E35" d="M218 100.2c0 5.1-11.4 9.2-25.5 9.2H47.1c-14.1 0-25.5-4.1-25.5-9.2S33 91 47.1 91h145.4c14.1 0 25.5 4.1 25.5 9.2z"/><path fill="#35BC5E" d="M140.6 144.4c.1 1.2-.9 2.2-2.2 2.3 0 0-14.6 2.6-19.5 2.9-4.9.3-19.7-.8-19.7-.8-1.3.1-2.3-.9-2.4-2.1l-.3-5.1 43.8-2.4.3 5.2z"/><path opacity=".2" fill="#FFF" d="M121.9 90.9c-2.1 2.5-3.8 4.7-3.7 5 .2.8 5.3 2.4 5.4 2.8.2.4-4.6 10.4-4.3 10.6.3.2 10.3-11.3 10.2-12.1-.2-.8-5.3-2.5-5.4-2.8 0-.1.6-1.6 1.4-3.5h-3.6z"/><path fill="#919190" d="M86.4 48.6c-5.2 14.4-27 4.7-35.5.2s-.2-11.3 5.2-21.5C61.5 17.2 71 .4 79.5 4.9s10.8 32.9 6.9 43.7z"/><ellipse transform="rotate(27.933 63.6 25.656)" fill="#9B9A9A" cx="63.6" cy="25.7" rx="22.2" ry="26.5"/><path fill="#919190" d="M68.8 29.6S52.6 9 40.2 9c-3.8 0-2.2 1.1-1.7 1.3 11.1 4.2 26.3 22.4 26.3 22.4 6.1 2.9 4-3.1 4-3.1z"/><circle fill="#044A6F" cx="38.8" cy="9.6" r="3.4"/><path fill="none" stroke="#919190" stroke-width="2" stroke-miterlimit="10" d="M65 45.3s-29.2 1.6-10.8-29.1C62.5 2.4 76.8 21 76.8 21"/><path fill="#919190" d="M145 48.6c5.2 14.4 27 4.7 35.5.2s.2-11.3-5.2-21.5-14.9-27-23.4-22.5-10.8 33-6.9 43.8z"/><ellipse transform="rotate(152.067 167.788 25.656)" fill="#9B9A9A" cx="167.8" cy="25.7" rx="22.2" ry="26.5"/><path fill="#919190" d="M162.6 29.6S178.8 9 191.2 9c3.8 0 2.2 1.1 1.7 1.3-11.1 4.2-26.3 22.4-26.3 22.4-6.1 2.9-4-3.1-4-3.1z"/><circle fill="#044A6F" cx="192.6" cy="9.6" r="3.4"/><path fill="none" stroke="#919190" stroke-width="2" stroke-miterlimit="10" d="M166.4 45.3s29.2 1.6 10.8-29.1c-8.3-13.8-22.5 4.9-22.5 4.9"/><g fill="#3BD771"><circle cx="80.6" cy="61.3" r="11.4"/><circle cx="156.8" cy="61.3" r="11.4"/></g><path fill="#090F19" d="M80.3 213.3h75.3v7.1H80.3zm0 20.5h75.3v7.1H80.3zm0 20.5h75.3v7.1H80.3z"/></svg>