<svg xmlns="http://www.w3.org/2000/svg" width="594.2" height="310.4"><switch><g><path d="M308.9 107.2h-1.4V90.4h1.4v16.8zm12.5-8.9c-1.6-.5-2.7-1.1-3.5-1.7-.7-.7-1.1-1.6-1.1-2.5 0-1.1.5-2 1.3-2.7 1-.7 2-1.1 3.5-1.1 1 0 1.8.2 2.6.6.7.4 1.3 1 1.8 1.6.5.7.6 1.4.6 2.1h-1.9c0-.8-.2-1.6-.8-2s-1.3-.7-2.3-.7c-1 0-1.7.2-2.1.6-.5.4-.8 1-.8 1.7 0 .6.2 1.1.7 1.4.5.4 1.3.7 2.5 1.1 1.2.4 2.1.7 2.7 1.1.7.4 1.2.8 1.4 1.4.4.5.5 1.2.5 1.9 0 1.2-.5 2-1.3 2.7-1 .7-2.1 1.1-3.6 1.1-1 0-1.9-.2-2.7-.6-.8-.4-1.6-.8-1.9-1.6-.5-.6-.7-1.4-.7-2.3h1.9c0 .8.4 1.6 1 2 .6.5 1.4.7 2.5.7 1 0 1.8-.2 2.3-.6.5-.4.8-1 .8-1.7s-.2-1.2-.7-1.7c-.5-.1-1.3-.4-2.7-.8zm11.7 6.6c-1.4 0-2.6-.5-3.5-1.4-1-1-1.3-2.1-1.3-3.8v-.2c0-1.1.2-2 .6-2.9.4-.8 1-1.4 1.7-1.9s1.6-.7 2.4-.7c1.4 0 2.4.5 3.2 1.3.7 1 1.2 2.1 1.2 3.9v.7h-7.2c0 1.1.4 1.9 1 2.5.6.6 1.3 1 2.3 1 .6 0 1.2-.1 1.7-.4.5-.2.8-.6 1.2-1.1l1.1.8c-1.3 1.4-2.6 2.2-4.4 2.2zm-.1-9.5c-.7 0-1.3.2-1.8.8-.5.6-.8 1.3-1 2.3h5.3v-.2c0-1-.4-1.7-.7-2.1-.5-.5-1.1-.8-1.8-.8zm11.5.3c-.2 0-.6-.1-.8-.1-1.2 0-2 .5-2.4 1.6v7.5h-1.8V94.1h1.8v1.2c.6-1 1.4-1.4 2.5-1.4.4 0 .6 0 .8.1v1.7h-.1zm5.4 6.5l2.6-8.1h1.8l-3.8 10.5H349l-3.8-10.5h1.8l2.9 8.1zm6.2-10.9c0-.2.1-.6.2-.7.2-.2.5-.4.8-.4.4 0 .6.1.8.4.2.2.2.5.2.7 0 .2-.1.5-.2.7-.2.2-.5.2-.8.2-.4 0-.6-.1-.8-.2-.1-.1-.2-.4-.2-.7zm1.9 13.3h-1.8V94.1h1.8v10.5zm7.1-1.2c.6 0 1.2-.2 1.7-.6.5-.4.7-.8.8-1.4h1.7c0 .6-.2 1.2-.6 1.7-.4.5-1 1-1.6 1.3-.6.4-1.3.5-2 .5-1.4 0-2.6-.5-3.5-1.4-.8-1-1.3-2.3-1.3-3.9v-.4c0-1.1.2-1.9.6-2.7.4-.8 1-1.4 1.7-1.9s1.6-.7 2.5-.7c1.2 0 2.1.4 3 1.1.8.7 1.2 1.7 1.3 2.7h-1.7c0-.7-.4-1.2-.7-1.7-.5-.5-1.1-.7-1.7-.7-1 0-1.7.4-2.1 1-.5.7-.7 1.7-.7 2.9v.4c0 1.2.2 2.1.7 2.9.3.6 1 .9 1.9.9zm10.6 1.5c-1.4 0-2.6-.5-3.5-1.4-1-1-1.3-2.1-1.3-3.8v-.2c0-1.1.2-2 .6-2.9.4-.8 1-1.4 1.7-1.9s1.6-.7 2.4-.7c1.4 0 2.4.5 3.2 1.3.7 1 1.2 2.1 1.2 3.9v.7h-7.2c0 1.1.4 1.9 1 2.5.6.6 1.3 1 2.3 1 .6 0 1.2-.1 1.7-.4.5-.2.8-.6 1.2-1.1l1.1.8c-1.3 1.4-2.6 2.2-4.4 2.2zm-.2-9.5c-.7 0-1.3.2-1.8.8-.5.5-.8 1.3-1 2.3h5.3v-.2c0-1-.4-1.7-.7-2.1-.5-.5-1.1-.8-1.8-.8zm17.6 6.5c0-.5-.2-.8-.6-1.2-.4-.2-1-.5-1.9-.7-1-.2-1.7-.5-2.1-.7-.6-.2-1-.6-1.2-1-.2-.4-.4-.8-.4-1.3 0-.8.4-1.6 1.1-2.1.7-.6 1.7-1 2.9-1s2.1.4 2.9 1c.7.6 1.1 1.4 1.1 2.4h-1.8c0-.5-.2-1-.6-1.3-.4-.4-1-.6-1.6-.6-.7 0-1.2.1-1.6.5-.4.2-.6.7-.6 1.1 0 .5.1.7.5 1 .4.2 1 .5 1.9.6 1 .1 1.7.5 2.1.7.5.2 1 .6 1.2 1 .2.4.4.8.4 1.4 0 1-.4 1.7-1.1 2.3-.7.6-1.8.8-3 .8-.8 0-1.6-.1-2.3-.5-.6-.4-1.2-.7-1.5-1.3-.4-.6-.6-1.1-.6-1.8h1.8c0 .6.2 1.1.7 1.4.5.4 1.1.5 1.8.5s1.2-.1 1.7-.4c.5 0 .8-.3.8-.8zm6.5-10.4V94h2v1.4h-2v6.6c0 .5.1.7.2 1 .1.2.5.4 1 .4.2 0 .5 0 .8-.1v1.4c-.5.1-1 .2-1.4.2-.8 0-1.4-.2-1.8-.7-.4-.5-.6-1.2-.6-2v-6.7h-1.9v-1.3h1.9v-2.6h1.8zm10.6 13.1c-.1-.2-.2-.6-.2-1.1-.8.8-1.8 1.3-3 1.3-1.1 0-1.9-.2-2.5-.8-.7-.6-1-1.3-1-2.3 0-1.1.5-1.9 1.3-2.5.8-.6 2-1 3.6-1h1.8v-.8c0-.6-.2-1.1-.6-1.6-.4-.5-1-.6-1.7-.6-.6 0-1.2.1-1.7.5s-.6.7-.6 1.2h-1.8c0-.5.2-1.1.6-1.6.4-.5.8-.8 1.6-1.2.6-.2 1.3-.5 2.1-.5 1.2 0 2.1.4 2.9 1s1.1 1.4 1.1 2.5v4.9c0 1 .1 1.8.4 2.3v.1h-2.3v.2zm-2.9-1.3c.6 0 1.1-.1 1.5-.5.5-.2.8-.7 1.1-1.2v-2.1h-1.4c-2.3 0-3.3.6-3.3 1.9 0 .6.2 1 .6 1.3.4.4.9.6 1.5.6zm9.7-11.8V94h2v1.4h-2v6.6c0 .5.1.7.2 1 .1.2.5.4 1 .4.2 0 .5 0 .8-.1v1.4c-.5.1-1 .2-1.4.2-.8 0-1.4-.2-1.8-.7-.4-.5-.6-1.2-.6-2v-6.7h-1.9v-1.3h1.9v-2.6h1.8zm10.7 12.2c-.7.8-1.8 1.2-3.1 1.2-1.1 0-2-.4-2.6-1s-.8-1.7-.8-2.9v-6.9h1.8v6.8c0 1.6.6 2.4 1.9 2.4 1.4 0 2.3-.5 2.7-1.6v-7.6h1.8v10.5h-1.7v-.9zm10.6-1.8c0-.5-.2-.8-.6-1.2-.4-.2-1-.5-1.9-.7-1-.2-1.7-.5-2.1-.7-.5-.2-1-.6-1.2-1-.2-.4-.4-.8-.4-1.3 0-.8.4-1.6 1.1-2.1.7-.6 1.7-1 2.9-1s2.1.4 2.9 1c.7.6 1.1 1.4 1.1 2.4h-1.8c0-.5-.2-1-.6-1.3-.4-.4-1-.6-1.6-.6-.7 0-1.2.1-1.6.5-.4.2-.6.7-.6 1.1 0 .5.1.7.5 1 .4.2 1 .5 1.9.6 1 .2 1.7.5 2.1.7.5.2 1 .6 1.2 1 .2.4.4.8.4 1.4 0 1-.4 1.7-1.1 2.3-.7.6-1.8.8-3 .8-.8 0-1.6-.1-2.3-.5-.6-.4-1.2-.7-1.6-1.3-.4-.6-.6-1.1-.6-1.8h1.8c0 .6.2 1.1.7 1.4.5.4 1.1.5 1.8.5s1.2-.1 1.7-.4c.6 0 .9-.3.9-.8z" fill="#738199"/><path d="M179.2 90.3v9.9c0 1.1-.2 2.1-.7 3-.5.8-1.2 1.4-2 1.9-1 .5-1.9.6-3.2.6-1.9 0-3.3-.5-4.4-1.4-1.1-1-1.6-2.3-1.7-3.9v-10h3.7v10.1c0 1.7.8 2.5 2.3 2.5.7 0 1.3-.2 1.7-.6.4-.5.6-1.1.6-2v-10h3.7zm13 9.7c0 1.8-.4 3.1-1.2 4.2-.8 1.1-1.9 1.6-3.2 1.6-1.1 0-1.9-.4-2.5-1.2v5.3h-3.6V94.2h3.3l.1 1.1c.7-.8 1.6-1.3 2.6-1.3 1.4 0 2.5.5 3.2 1.6.7 1.1 1.2 2.4 1.2 4.3v.1zm-3.6-.3c0-2-.6-3-1.8-3-.8 0-1.4.4-1.7 1v4.4c.4.6.8 1 1.7 1 1.1 0 1.7-1 1.8-2.9v-.5zm9.6-8.3v2.9h1.9v2.4h-1.9v5.1c0 .5.1.7.2.8.1.1.5.2 1 .2.4 0 .6 0 .8-.1v2.7c-.6.2-1.3.4-2 .4-1.2 0-2.1-.2-2.7-.8-.6-.6-.8-1.4-.8-2.6v-5.7h-1.4v-2.4h1.4v-2.9h3.5zm3.5-.1c0-.5.2-1 .6-1.2.4-.4.8-.5 1.4-.5.6 0 1.1.1 1.4.5.4.4.6.7.6 1.2s-.2 1-.6 1.2c-.4.4-.8.5-1.4.5-.6 0-1.1-.1-1.4-.5-.4-.3-.6-.8-.6-1.2zm3.7 14.2h-3.6V94.2h3.6v11.3zm5.9-11.3l.1 1.3c.8-1.1 1.9-1.6 3.2-1.6 1.4 0 2.4.6 2.9 1.7.7-1.2 1.9-1.7 3.3-1.7 2.3 0 3.5 1.4 3.6 4.2v7.3h-3.6v-7.2c0-.6-.1-1-.2-1.3-.2-.2-.6-.4-1.1-.4-.7 0-1.2.4-1.6 1v7.9h-3.6v-7.2c0-.6-.1-1.1-.2-1.3-.2-.2-.6-.4-1.1-.4-.7 0-1.2.4-1.6 1v7.9h-3.6V94.2h3.5zm21.1 11.5c-1.8 0-3.1-.5-4.2-1.6s-1.6-2.4-1.6-4.1v-.2c0-1.2.2-2.1.6-3.1.4-.8 1-1.6 1.8-2 .8-.5 1.8-.7 3-.7 1.6 0 2.9.5 3.8 1.4 1 1 1.4 2.4 1.4 4.2v1.3h-7c.1.6.4 1.1.8 1.6.5.4 1 .6 1.7.6 1.1 0 2-.4 2.6-1.2l1.6 1.9c-.5.6-1.1 1.1-1.9 1.4-.8.4-1.7.5-2.6.5zm-.5-9c-1.1 0-1.7.7-1.8 2h3.6v-.4c0-.6-.1-1-.5-1.3-.2-.1-.7-.3-1.3-.3zm13 3.4h-2v5.4h-3.7V90.3h6c1.8 0 3.2.4 4.2 1.2 1.2.8 1.7 1.9 1.7 3.3 0 1.1-.2 1.9-.6 2.6-.5.7-1.1 1.3-2 1.7l3.2 6.1v.2h-3.9l-2.9-5.3zm-2-2.8h2.3c.7 0 1.2-.2 1.6-.6.4-.4.5-.8.5-1.6 0-.6-.1-1.2-.5-1.6-.4-.4-.8-.6-1.6-.6h-2.3v4.4zm10 2.4c0-1.1.2-2.1.7-3 .5-.8 1.1-1.6 1.9-2 .8-.5 1.8-.7 2.9-.7 1.7 0 3 .5 4.1 1.6 1 1.1 1.4 2.5 1.4 4.3v.1c0 1.8-.5 3.2-1.4 4.2-1 1.1-2.3 1.6-3.9 1.6s-2.9-.5-3.9-1.4c-1-1-1.6-2.3-1.6-3.9l-.2-.8zm3.5.3c0 1.1.1 1.8.5 2.3.4.5.8.7 1.4.7 1.3 0 1.9-1 1.9-2.9v-.4c0-2-.6-3-1.9-3-1.2 0-1.8.8-1.9 2.6v.7zm19.8 0c0 1.9-.4 3.2-1.2 4.3-.7 1-1.8 1.6-3.2 1.6-1.2 0-2-.5-2.7-1.3l-.1 1.2h-3.1V89.5h3.6v5.6c.6-.7 1.6-1.1 2.5-1.1 1.4 0 2.5.5 3.2 1.6.7 1 1.2 2.4 1.2 4.3v.1h-.2zm-3.6-.3c0-1.1-.1-1.9-.5-2.3-.2-.5-.7-.7-1.3-.7-.8 0-1.3.4-1.7 1v4.5c.4.6.8 1 1.7 1 .8 0 1.3-.4 1.6-1.2.2-.6.2-1.3.2-2.3zm5 0c0-1.1.2-2.1.7-3 .5-.8 1.1-1.6 1.9-2 .8-.5 1.8-.7 2.9-.7 1.7 0 3 .5 4.1 1.6 1 1.1 1.4 2.5 1.4 4.3v.1c0 1.8-.5 3.2-1.4 4.2-1 1-2.3 1.6-3.9 1.6s-2.9-.5-3.9-1.4c-1-1-1.6-2.3-1.6-3.9l-.2-.8zm3.6.3c0 1.1.1 1.8.5 2.3.4.5.8.7 1.4.7 1.3 0 1.9-1 1.9-2.9v-.4c0-2-.6-3-1.9-3-1.2 0-1.8.8-1.9 2.6v.7zm13.4-8.6v2.9h1.9v2.4h-1.9v5.1c0 .5.1.7.2.8.1.1.5.2 1 .2.4 0 .6 0 .8-.1v2.7c-.6.2-1.3.4-2 .4-1.2 0-2.1-.2-2.7-.8-.6-.6-.8-1.4-.8-2.6v-5.7h-1.4v-2.4h1.4v-2.9h3.5z" fill="#121E35"/><circle fill="#3BD771" cx="158.1" cy="101.6" r="3.8"/><path fill="none" stroke="#738199" stroke-width="1.193" stroke-miterlimit="10" d="M428.8 180.1c0 1.3-1.1 2.4-2.4 2.4H167.8c-1.3 0-2.4-1.1-2.4-2.4v-24.9c0-1.3 1.1-2.4 2.4-2.4h258.6c1.3 0 2.4 1.1 2.4 2.4v24.9z"/><circle fill="#738199" cx="178.2" cy="168.3" r="3.7"/><circle fill="#738199" cx="190" cy="168.3" r="3.7"/><circle fill="#738199" cx="201.8" cy="168.3" r="3.7"/><circle fill="#738199" cx="213.6" cy="168.3" r="3.7"/><circle fill="#738199" cx="225.4" cy="168.3" r="3.7"/><circle fill="#738199" cx="237.2" cy="168.3" r="3.7"/><circle fill="#738199" cx="249" cy="168.3" r="3.7"/><circle fill="#738199" cx="260.8" cy="168.3" r="3.7"/><circle fill="#738199" cx="272.6" cy="168.3" r="3.7"/><path fill="#36D56C" d="M428.8 218.7c0 1.3-1.1 2.4-2.4 2.4H167.8c-1.3 0-2.4-1.1-2.4-2.4v-24.9c0-1.3 1.1-2.4 2.4-2.4h258.6c1.3 0 2.4 1.1 2.4 2.4v24.9z"/><path d="M281.1 208.5c0-.4-.1-.7-.4-.9-.3-.2-.8-.4-1.5-.7s-1.3-.5-1.7-.7c-1.2-.6-1.7-1.5-1.7-2.5 0-.5.2-1 .5-1.5.3-.4.8-.8 1.3-1 .6-.2 1.2-.4 2-.4.7 0 1.4.1 1.9.4.6.3 1 .6 1.3 1.1.3.5.5 1 .5 1.6h-2.1c0-.5-.1-.8-.4-1.1-.3-.3-.7-.4-1.2-.4s-.9.1-1.2.3-.4.5-.4.9c0 .3.2.6.5.8.3.2.8.4 1.5.6 1.2.4 2.1.8 2.6 1.3s.8 1.2.8 2c0 .9-.3 1.6-1 2.1s-1.6.8-2.7.8c-.8 0-1.5-.1-2.1-.4-.6-.3-1.1-.7-1.5-1.2-.3-.5-.5-1.1-.5-1.7h2.1c0 1.1.7 1.7 2 1.7.5 0 .9-.1 1.2-.3.1-.2.2-.5.2-.8zm8 1.9c-.5.6-1.2.9-2.1.9-.8 0-1.4-.2-1.9-.7-.4-.5-.6-1.1-.7-2v-5h2v4.9c0 .8.4 1.2 1.1 1.2.7 0 1.2-.2 1.4-.7v-5.4h2v7.6H289l.1-.8zm10.2-3c0 1.2-.3 2.2-.8 2.8-.5.7-1.2 1-2.2 1-.8 0-1.5-.3-2-.9l-.1.8h-1.8v-10.7h2v3.9c.5-.5 1.1-.8 1.8-.8.9 0 1.6.3 2.2 1s.8 1.6.8 2.9zm-2-.1c0-.8-.1-1.3-.4-1.7-.2-.4-.6-.5-1.1-.5-.6 0-1.1.3-1.3.8v3c.2.5.7.8 1.3.8.7 0 1.1-.3 1.3-1 .2-.3.2-.8.2-1.4zm5.2-3.7l.1.8c.5-.7 1.3-1 2.2-1 1 0 1.6.4 2 1.2.5-.8 1.3-1.2 2.3-1.2.8 0 1.4.2 1.8.7.4.5.6 1.2.6 2.2v4.8h-2v-4.8c0-.4-.1-.7-.3-.9-.2-.2-.5-.3-.9-.3-.6 0-1 .3-1.3.9v5.2h-2v-4.8c0-.4-.1-.8-.3-1-.2-.2-.5-.3-.9-.3-.6 0-1 .2-1.2.7v5.4h-2v-7.6h1.9zm10.5-2c0-.3.1-.6.3-.7.2-.2.5-.3.8-.3.3 0 .6.1.8.3.2.2.3.4.3.7 0 .3-.1.6-.3.8-.2.2-.5.3-.8.3-.3 0-.6-.1-.8-.3-.2-.2-.3-.5-.3-.8zm2.1 9.5h-2v-7.6h2v7.6zm4.1-9.4v1.9h1.3v1.5h-1.3v3.8c0 .3.1.5.2.6s.3.2.6.2h.6v1.5c-.4.1-.8.2-1.2.2-1.4 0-2.1-.7-2.2-2.1V205h-1.1v-1.5h1.1v-1.9h2z" fill="#FFF"/></g></switch></svg>