<?xml version="1.0" encoding="utf-8"?>
<!-- Generator: Adobe Illustrator 16.0.3, SVG Export Plug-In . SVG Version: 6.00 Build 0)  -->
<!DOCTYPE svg PUBLIC "-//W3C//DTD SVG 1.1//EN" "http://www.w3.org/Graphics/SVG/1.1/DTD/svg11.dtd">
<svg version="1.1" id="OBJECTS" xmlns="http://www.w3.org/2000/svg" xmlns:xlink="http://www.w3.org/1999/xlink" x="0px" y="0px"
	 width="233.7px" height="134.7px" viewBox="-72.9 -70 233.7 134.7" enable-background="new -72.9 -70 233.7 134.7"
	 xml:space="preserve">
<g>
	<g>
		<rect x="76.8" y="-70" fill="#EBFBF1" width="84" height="84"/>
	</g>
	<g>
		<path fill="#FFFFFF" d="M128.8,54.5c0,3.3-2.7,6-6,6H-7.4c-3.3,0-6-2.7-6-6v-89.3c0-3.3,2.7-6,6-6h130.2c3.3,0,6,2.7,6,6V54.5z"/>
		<path fill="#131A26" d="M121.1-40.1c3.3,0,6,2.7,6,6v86.7c0,3.3-2.7,6-6,6h-127c-3.3,0-6-2.7-6-6v-86.7c0-3.3,2.7-6,6-6H121.1
			 M121.1-46.1h-127c-6.6,0-12,5.4-12,12v86.7c0,6.6,5.4,12,12,12h127c6.6,0,12-5.4,12-12v-86.7C133.1-40.7,127.7-46.1,121.1-46.1
			L121.1-46.1z"/>
	</g>
	<g>
		<path fill="#3BD671" d="M8.3,55.8c0,3.3-2.7,6-6,6h-35c-3.3,0-6-2.7-6-6v-69.4c0-3.3,2.7-6,6-6h35c3.3,0,6,2.7,6,6V55.8z"/>
		<path fill="#131A26" d="M0-24.1h-31c-6.6,0-12,5.4-12,12v64.7c0,6.6,5.4,12,12,12H0c6.6,0,12-5.4,12-12v-64.7
			C12-18.7,6.6-24.1,0-24.1z M-15.5,61.3c-2,0-3.6-1.6-3.6-3.6s1.6-3.6,3.6-3.6s3.6,1.6,3.6,3.6S-13.5,61.3-15.5,61.3z M6,49.4h-43
			v-61.5c0-3.3,2.7-6,6-6H0c3.3,0,6,2.7,6,6V49.4z"/>
		<g>
			<g>
				<g>
					<circle fill="#FFFFFF" cx="-8.8" cy="10.2" r="2"/>
				</g>
			</g>
			<g>
				<g>
					<path fill="#FFFFFF" d="M0.2,11.8c-0.7-1.7-1.9-4.2-4-6.2c-2-2-4.5-3.2-6.2-3.9c-1.9-0.7-4-0.3-5.4,1.1l-4.9,4.9
						c-1.5,1.5-1.9,3.7-1.1,5.6c0.3,0.6,0.5,1.2,0.8,1.7l-10.9,10.9c-0.2,0.2-0.4,0.6-0.4,0.9v5.5c0,0.7,0.6,1.3,1.3,1.3h5.5
						c0.7,0,1.3-0.6,1.3-1.3V30h2.3c0.7,0,1.3-0.6,1.3-1.3v-2.3h2.3c0.7,0,1.3-0.6,1.3-1.3c0-0.7-0.6-1.3-1.3-1.3h-3.5
						c-0.7,0-1.3,0.6-1.3,1.3v2.3h-2.3c-0.7,0-1.3,0.6-1.3,1.3v2.3h-3v-3.8L-18,16.1c0.4-0.4,0.5-1,0.2-1.5
						c-0.4-0.7-0.8-1.5-1.2-2.3c-0.4-0.9-0.2-2.1,0.5-2.8l4.9-4.9c0.7-0.7,1.8-0.9,2.7-0.6c1.5,0.6,3.6,1.6,5.3,3.3
						c1.7,1.7,2.8,3.9,3.4,5.4c0.4,0.9,0.1,2-0.6,2.7l-5,5c-0.7,0.7-1.8,0.9-2.8,0.5c-0.8-0.3-1.6-0.7-2.3-1.2
						c-0.6-0.4-1.4-0.2-1.7,0.4c-0.4,0.6-0.2,1.4,0.4,1.7c0.8,0.5,1.7,1,2.6,1.3c1.9,0.8,4.1,0.4,5.5-1.1l5-5
						C0.4,15.8,0.9,13.7,0.2,11.8z"/>
				</g>
			</g>
		</g>
	</g>
	<circle fill="#3BD671" cx="76.5" cy="14.3" r="17.8"/>
	<g>
		<g>
			<g>
				<circle fill="#131A26" cx="59.5" cy="19" r="1.3"/>
			</g>
		</g>
		<g>
			<g>
				<path fill="#131A26" d="M59.5,13.9c-2.8,0-5.1,2.3-5.1,5.1c0,2.4,1.6,4.3,3.8,4.9v4c0,0.7,0.6,1.3,1.3,1.3s1.3-0.6,1.3-1.3v-4
					c2.2-0.6,3.8-2.5,3.8-4.9C64.6,16.2,62.3,13.9,59.5,13.9z M59.5,21.5c-1.4,0-2.5-1.1-2.5-2.5c0-1.4,1.1-2.5,2.5-2.5
					S62,17.6,62,19C62,20.4,60.9,21.5,59.5,21.5z"/>
			</g>
		</g>
		<g>
			<g>
				<path fill="#131A26" d="M74.7,6.3V-3.8c0-8.4-6.8-15.2-15.2-15.2S44.3-12.2,44.3-3.8V6.3c-2.1,0-3.8,1.7-3.8,3.8v22.8
					c0,2.1,1.7,3.8,3.8,3.8h30.4c2.1,0,3.8-1.7,3.8-3.8V10.1C78.5,8,76.8,6.3,74.7,6.3z M76,11.4h-3.8c-0.7,0-1.3,0.6-1.3,1.3
					c0,0.7,0.6,1.3,1.3,1.3H76v15.2h-3.8c-0.7,0-1.3,0.6-1.3,1.3c0,0.7,0.6,1.3,1.3,1.3H76v1.3c0,0.7-0.6,1.3-1.3,1.3H44.3
					c-0.7,0-1.3-0.6-1.3-1.3v-1.3h3.8c0.7,0,1.3-0.6,1.3-1.3c0-0.7-0.6-1.3-1.3-1.3h-3.8V13.9h3.8c0.7,0,1.3-0.6,1.3-1.3
					c0-0.7-0.6-1.3-1.3-1.3h-3.8v-1.3c0-0.7,0.6-1.3,1.3-1.3h24.1c0.7,0,1.3-0.6,1.3-1.3V-3.8c0-5.6-4.5-10.1-10.1-10.1
					S49.4-9.4,49.4-3.8v6.3c0,0.7,0.6,1.3,1.3,1.3c0.7,0,1.3-0.6,1.3-1.3v-6.3c0-4.2,3.4-7.6,7.6-7.6c4.2,0,7.6,3.4,7.6,7.6V6.3
					H46.9V-3.8c0-7,5.7-12.7,12.7-12.7s12.7,5.7,12.7,12.7V7.6c0,0.7,0.6,1.3,1.3,1.3h1.3c0.7,0,1.3,0.6,1.3,1.3V11.4L76,11.4z"/>
			</g>
		</g>
	</g>
</g>
</svg>
