<?xml version="1.0" encoding="utf-8"?>
<!-- Generator: Adobe Illustrator 16.0.3, SVG Export Plug-In . SVG Version: 6.00 Build 0)  -->
<!DOCTYPE svg PUBLIC "-//W3C//DTD SVG 1.1 Tiny//EN" "http://www.w3.org/Graphics/SVG/1.1/DTD/svg11-tiny.dtd">
<svg version="1.1" baseProfile="tiny" id="OBJECTS" xmlns="http://www.w3.org/2000/svg" xmlns:xlink="http://www.w3.org/1999/xlink"
	 x="0px" y="0px" width="107px" height="84px" viewBox="0 0 107 84" xml:space="preserve">
<g>
	<rect fill="#EBFBF1" width="84" height="84"/>
	<circle fill="#3BD671" cx="86.4" cy="36.7" r="20.6"/>
</g>
<g>
	<path fill="#131A26" d="M55.1,84C32,84,13.2,65.2,13.2,42.1S32,0.3,55.1,0.3c23.1,0,41.8,18.8,41.8,41.8S78.1,84,55.1,84z
		 M55.1,5.9c-19.9,0-36.2,16.2-36.2,36.2c0,19.9,16.2,36.2,36.2,36.2c19.9,0,36.2-16.2,36.2-36.2C91.2,22.2,75,5.9,55.1,5.9z"/>
	<path fill="#131A26" d="M51.5,70.9c0-2.1,1.7-3.7,3.7-3.7l0,0c2.1,0,3.8,1.5,3.8,3.6l0,0c0,2.1-1.7,3.7-3.7,3.7l0,0c0,0,0,0,0,0
		l0,0C53.3,74.5,51.6,73,51.5,70.9z M38.9,70.7c-1.8-1-2.5-3.3-1.4-5.2l0,0c1-1.8,3.3-2.5,5.2-1.4l0,0c1.8,1,2.5,3.3,1.4,5.2l0,0
		c-0.7,1.2-2,1.9-3.3,1.9l0,0C40.2,71.1,39.5,71,38.9,70.7z M66.5,69c-1.1-1.8-0.5-4.1,1.3-5.2l0,0c1.8-1.1,4.1-0.5,5.2,1.3l0,0
		c1.1,1.8,0.5,4.1-1.3,5.2l0,0c-0.6,0.4-1.3,0.5-1.9,0.5l0,0C68.5,70.9,67.2,70.2,66.5,69z M26.8,58.8c-1.1-1.8-0.5-4.1,1.3-5.2l0,0
		c1.8-1.1,4.1-0.5,5.2,1.3l0,0c1.1,1.8,0.5,4.1-1.3,5.2l0,0c-0.6,0.4-1.3,0.5-1.9,0.5l0,0C28.8,60.6,27.5,60,26.8,58.8z M78.4,59.7
		c-1.8-1-2.5-3.3-1.4-5.2l0,0c1-1.8,3.3-2.5,5.2-1.4l0,0c1.8,1,2.5,3.3,1.4,5.2l0,0c-0.7,1.2-2,1.9-3.3,1.9l0,0
		C79.6,60.2,79,60,78.4,59.7z M22.3,42.6c0-2.1,1.7-3.9,3.7-3.9l0,0c2.1,0,3.8,1.8,3.8,3.9l0,0c0,2.1-1.7,3.9-3.7,3.9l0,0
		c0,0,0,0,0,0l0,0C24,46.5,22.3,44.7,22.3,42.6z M80.9,41.9L80.9,41.9C80.9,41.9,80.9,41.8,80.9,41.9L80.9,41.9
		c0-2.2,1.4-3.9,3.5-3.9l0,0c2.1,0,3.5,1.6,3.5,3.7l0,0l0,0l0,0c0,0,0,0,0,0.1l0,0c0,0,0,0.1,0,0.1l0,0c0,2.1-1.4,3.8-3.5,3.8l0,0
		C82.3,45.7,80.9,44,80.9,41.9z M27.9,31.2c-1.8-1-2.5-3.3-1.4-5.2l0,0c1-1.8,3.3-2.5,5.2-1.4l0,0c1.8,1,2.5,3.3,1.4,5.2l0,0
		c-0.7,1.2-2,1.9-3.3,1.9l0,0C29.2,31.7,28.5,31.5,27.9,31.2z M76.7,29.3c-1.1-1.8-0.5-4.1,1.3-5.2l0,0c1.8-1.1,4.1-0.5,5.2,1.3l0,0
		l0,0l0,0c1.1,1.8,0.5,4.1-1.3,5.2l0,0c-0.6,0.4-1.3,0.5-1.9,0.5l0,0C78.7,31.1,77.4,30.4,76.7,29.3z M37,19.4
		c-1.1-1.8-0.5-3.9,1.3-4.9l0,0c0,0,0,0,0,0l0,0c1.8,0,4.1-0.7,5.2,1.1l0,0c1.1,1.8,0.5,3.9-1.3,4.9h0c-0.6,0-1.3,0.6-1.9,0.6l0,0
		C39,21.1,37.7,20.6,37,19.4z M67.4,20.1c-1.8-1-2.5-3.3-1.4-5.1l0,0c1-1.8,3.3-2.5,5.2-1.4l0,0c1.8,1,2.5,3.3,1.4,5.2l0,0
		c-0.7,1.2-2,1.9-3.3,1.9l0,0C68.6,20.6,68,20.5,67.4,20.1z M50.9,13c0-2.1,1.7-3.7,3.7-3.7l0,0c2.1,0,3.8,1.5,3.8,3.6l0,0
		c0,2.1-1.7,3.7-3.7,3.7l0,0c0,0,0,0,0,0l0,0C52.7,16.5,51,15,50.9,13z"/>
	<polygon fill="#131A26" points="69.9,45.5 51.9,45.5 51.9,21.5 57.9,21.5 57.9,39.5 69.9,39.5 	"/>
</g>
</svg>
