<?xml version="1.0" encoding="utf-8"?>
<!-- Generator: Adobe Illustrator 16.0.3, SVG Export Plug-In . SVG Version: 6.00 Build 0)  -->
<!DOCTYPE svg PUBLIC "-//W3C//DTD SVG 1.1//EN" "http://www.w3.org/Graphics/SVG/1.1/DTD/svg11.dtd">
<svg version="1.1" id="OBJECTS" xmlns="http://www.w3.org/2000/svg" xmlns:xlink="http://www.w3.org/1999/xlink" x="0px" y="0px"
	 width="106.7px" height="84px" viewBox="0 0 106.7 84" enable-background="new 0 0 106.7 84" xml:space="preserve">
<g>
	<rect fill="#EBFBF1" width="84" height="84"/>
	<circle fill="#3BD671" cx="86.1" cy="26.4" r="20.6"/>
</g>
<g>
	<g>
		<path fill="#131A26" d="M37.7,43l2.4-22.2h23.6v6.3H46.2L45,37.6c2-1.2,4.3-1.8,6.9-1.8c4.2,0,7.4,1.3,9.8,4
			c2.3,2.7,3.5,6.3,3.5,10.8c0,4.5-1.3,8-3.9,10.7c-2.6,2.6-6.1,4-10.6,4c-4,0-7.4-1.1-10-3.4c-2.6-2.3-4.1-5.3-4.3-9h7.1
			c0.3,2.1,1,3.8,2.3,4.9c1.2,1.1,2.9,1.7,4.9,1.7c2.3,0,4-0.8,5.3-2.4c1.3-1.6,1.9-3.8,1.9-6.6c0-2.7-0.7-4.8-2.1-6.4
			c-1.4-1.6-3.3-2.3-5.7-2.3c-1.3,0-2.5,0.2-3.4,0.5c-0.9,0.4-1.9,1-3,2.1L37.7,43z"/>
		<path fill="#131A26" d="M79.7,42.8L86,32.1h8.2l-10,16.1l10.3,16.6h-8.1l-6.5-11.2l-6.5,11.2h-8.2l10.3-16.6l-10-16.1h8.1
			L79.7,42.8z"/>
	</g>
	<path fill="#131A26" d="M77.9,70.5c-6.1,5-14,7.8-22.6,7.8c-19.5,0-35.2-16.1-35.2-35.5C20.1,23.3,35.9,8,55.3,8
		c13.6,0,25.3,8.5,31.2,19.5h6.1C86.4,11.5,72,2.4,55.3,2.4c-22.5,0-40.8,17.9-40.8,40.4C14.5,65.3,32.8,84,55.3,84
		c12.1,0,23-5.5,30.4-13.5H77.9z"/>
</g>
</svg>
