<?xml version="1.0" encoding="utf-8"?>
<!-- Generator: Adobe Illustrator 16.0.3, SVG Export Plug-In . SVG Version: 6.00 Build 0)  -->
<!DOCTYPE svg PUBLIC "-//W3C//DTD SVG 1.1//EN" "http://www.w3.org/Graphics/SVG/1.1/DTD/svg11.dtd">
<svg version="1.1" id="OBJECTS" xmlns="http://www.w3.org/2000/svg" xmlns:xlink="http://www.w3.org/1999/xlink" x="0px" y="0px"
	 width="106.7px" height="84px" viewBox="0 0 106.7 84" enable-background="new 0 0 106.7 84" xml:space="preserve">
<g>
	<rect fill="#EBFBF1" width="84" height="84"/>
	<circle fill="#3BD671" cx="86.1" cy="42.4" r="20.6"/>
</g>
<g>
	<path fill="#131A26" d="M32.4,61.3c0-1.5,0.4-2.7,1.3-3.7c0.9-1,2.2-1.5,3.9-1.5c1.7,0,3.1,0.5,4,1.5c0.9,1,1.3,2.2,1.3,3.7
		c0,1.4-0.5,2.6-1.3,3.5c-0.9,0.9-2.2,1.4-4,1.4c-1.7,0-3-0.5-3.9-1.4C32.9,63.8,32.4,62.7,32.4,61.3z"/>
	<path fill="#131A26" d="M57.1,61.3c0-1.5,0.4-2.7,1.3-3.7c0.9-1,2.2-1.5,3.9-1.5s3.1,0.5,4,1.5c0.9,1,1.3,2.2,1.3,3.7
		c0,1.4-0.5,2.6-1.3,3.5c-0.9,0.9-2.2,1.4-4,1.4s-3-0.5-3.9-1.4C57.5,63.8,57.1,62.7,57.1,61.3z"/>
	<path fill="#131A26" d="M81.7,61.3c0-1.5,0.4-2.7,1.3-3.7c0.9-1,2.2-1.5,3.9-1.5c1.7,0,3.1,0.5,4,1.5c0.9,1,1.3,2.2,1.3,3.7
		c0,1.4-0.4,2.6-1.3,3.5c-0.9,0.9-2.2,1.4-4,1.4c-1.7,0-3-0.5-3.9-1.4C82.2,63.8,81.7,62.7,81.7,61.3z"/>
</g>
</svg>
