<?xml version="1.0" encoding="utf-8"?>
<!-- Generator: Adobe Illustrator 16.0.3, SVG Export Plug-In . SVG Version: 6.00 Build 0)  -->
<!DOCTYPE svg PUBLIC "-//W3C//DTD SVG 1.1 Tiny//EN" "http://www.w3.org/Graphics/SVG/1.1/DTD/svg11-tiny.dtd">
<svg version="1.1" baseProfile="tiny" id="OBJECTS" xmlns="http://www.w3.org/2000/svg" xmlns:xlink="http://www.w3.org/1999/xlink"
	 x="0px" y="0px" width="106.7px" height="84px" viewBox="0 0 106.7 84" xml:space="preserve">
<g>
	<rect fill="#EBFBF1" width="84" height="84"/>
	<circle fill="#3BD671" cx="85.9" cy="36.7" r="20.6"/>
</g>
<path fill="#131A26" d="M96.6,7.7l-0.7-5.6C84,10,69.9,8.7,60.6,0c-8.8,8.6-23.2,9.9-35.1,2.1l-0.8,5.6c-0.7,4.5-6,43.9,5.5,57.2
	C40.7,77.1,58,83.2,59.9,83.6l0.7,0.1l0.7-0.1c2-0.4,19.3-6.6,29.8-18.7C102.6,51.6,97.2,12.2,96.6,7.7z M85.8,60.4
	c-8.2,9.5-21.7,15.1-25.2,16.2c-3.6-1.2-17-6.7-25.2-16.2c-7.2-8.3-6-34-4.4-47.4c2.6,0.7,6.5,1.2,11.8,1.1
	c9.2-0.3,14.9-2.9,17.9-4.8c3,1.9,8.7,4.5,17.9,4.8c5.3,0.2,9.2-0.4,11.8-1.1C91.8,26.5,93,52.1,85.8,60.4z"/>
</svg>
