<?xml version="1.0" encoding="utf-8"?>
<!-- Generator: Adobe Illustrator 16.0.3, SVG Export Plug-In . SVG Version: 6.00 Build 0)  -->
<!DOCTYPE svg PUBLIC "-//W3C//DTD SVG 1.1//EN" "http://www.w3.org/Graphics/SVG/1.1/DTD/svg11.dtd">
<svg version="1.1" id="OBJECTS" xmlns="http://www.w3.org/2000/svg" xmlns:xlink="http://www.w3.org/1999/xlink" x="0px" y="0px"
	 width="106.7px" height="84px" viewBox="0 0 106.7 84" enable-background="new 0 0 106.7 84" xml:space="preserve">
<g>
	<rect fill="#EBFBF1" width="84" height="84"/>
	<circle fill="#3BD671" cx="86.1" cy="26.4" r="20.6"/>
</g>
<path fill="#131A26" d="M95,36.9c-0.4-4.5-3.6-7.5-7.4-9.4c-1.6-0.8-1.1-3.1-1.1-4.6c0-4.6,0.1-9.2-0.1-13.8
	c-0.4-0.5-0.8-0.9-1.2-1.4c-0.8-0.5-1.7-0.5-2.8-0.2L82.5,8l-0.3-0.3c-0.7,0.5-15.3,8.7-16.1,9l-0.1,0c-3,2.3-6.9,4.4-10.4,5.8
	l-0.1,0.1c-1,1-7.2,0.1-8.3,0.1c-4,0-7.9,0-11.9,0.1c-4.1,0-7.9-0.2-11.8,0.8l-0.1,0.1c-0.6,0.4-1.5,0.5-2.2,0.9l0.1,0.3l-0.2-0.3
	c-5.6,3.4-8.4,9.6-7.5,16.1c0.6,4.2,2.9,7.9,6.4,10.3c2.6,1.8,6.2,1.7,6.6,5.5c0,0,0,0.1,0,0.1c0.5,0,0.5,0.1,0,0.1
	c0.5,4.7,1.6,9.4,2.4,14c0.7,4.1,3.2,7.2,7.2,8.4c2.1,0.2,3.8,0,5.7-0.5c9.3-5.4,4.4-16.6,2.8-25.2c2.8,0,5.6-0.1,8.4-0.1
	c1.9,0,4.2,1.7,5.8,2.5c6,3.2,11.9,6.4,17.8,9.6c2.5,1.4,8.2,5.9,9.7,1.3c0.7-2.3-1.5-17.8,1-17.9l0.1-0.2c0.5-0.7,2.7-1.3,3.5-2
	C93.9,44.2,95.4,40.7,95,36.9C94.8,35,95.4,41.2,95,36.9z M86.6,37.1c0-1.2,0.2-2.6,0-3.8c3.2,2.2,4,7.7,0,9.7
	C86.5,41.1,86.6,39,86.6,37.1z M58.9,28.3c0-2.5,8.6-5.7,10.6-6.9c3.7-2.1,7.4-4.3,11.1-6.2v46c-5.2-2.6-10.2-5.6-15.3-8.3
	c-1.9-1-3.7-2-5.6-3c-1.7-0.9-0.9-4.5-0.9-6.1C58.9,38.6,58.9,33.5,58.9,28.3C58.9,27.6,58.9,34.9,58.9,28.3z M52.9,47
	c0,1.9-8.9,0.8-10.4,0.8c-5.1,0-11.2,0.9-16.2-0.2C17,45.4,16.2,31,25.8,28.8c6.2-1.5,13.7-0.3,20.2-0.3c2.9,0,7-1.5,6.9,2.1
	C52.9,36.1,52.9,41.5,52.9,47C52.9,47.4,52.8,40,52.9,47z M32,53.7c0-0.2,6.2-0.1,6.8-0.1c1.1,0,2.2,10,2.4,11.3
	c0.5,2.9,1.6,10.5-4.1,8.4C33.8,72,33.1,53.7,32,53.7z M27.1,56.5C27.1,56.5,27.1,56.5,27.1,56.5L27.1,56.5z"/>
</svg>
